<?xml version="1.0" standalone="no"?><!DOCTYPE svg PUBLIC "-//W3C//DTD SVG 1.1//EN" "http://www.w3.org/Graphics/SVG/1.1/DTD/svg11.dtd"><svg t="1707036185787" class="icon" viewBox="0 0 1024 1024" version="1.1" xmlns="http://www.w3.org/2000/svg" p-id="1176" xmlns:xlink="http://www.w3.org/1999/xlink" width="200" height="200"><path d="M514.5 511.5m-434.5 0a434.5 434.5 0 1 0 869 0 434.5 434.5 0 1 0-869 0Z" fill="#63D13F" p-id="1177"></path><path d="M358.58 426H307.1a26.45 26.45 0 0 0-26.24 23.11l-27.45 216.36a26.44 26.44 0 0 0 26.23 29.77h64A26.44 26.44 0 0 0 370 670.62l15-216.34A26.44 26.44 0 0 0 358.58 426zM783.48 665.85l-23-162.67a26.44 26.44 0 0 0-26.18-22.75h-40a26.45 26.45 0 0 0-26.3 28.28l11.26 162.67A26.45 26.45 0 0 0 705.61 696h51.69a26.45 26.45 0 0 0 26.18-30.15zM611 320.57A30.68 30.68 0 0 0 580.37 292h-115.8A30.69 30.69 0 0 0 434 320.57l-28.61 342.62A30.69 30.69 0 0 0 436 696h172.93a30.69 30.69 0 0 0 30.61-32.81z m-64.79 309a24.47 24.47 0 0 1-48.93 0V556.4a24.46 24.46 0 0 1-11.07-47.4l22.87-7.89a22.94 22.94 0 0 1 2.51-0.71 24.44 24.44 0 0 1 34.6 22.26z" fill="#FFFFFF" p-id="1178"></path></svg>